#!OML:ASF E:\id_vita\Project 1\Capture day 1\Session 1\Female.ASF
:FULLY-SPECIFIED
:DEGREES
931
root -26.9185 16.3699 0.512969 12.8489 -178.163 1.92478
lowerback -14.3466 1.10449 -2.61766
upperback -6.11717 0.926708 1.74307
thorax 1.49618 0.168561 3.43426
lowerneck 13.7817 0.772816 -0.509911
upperneck -16.4736 0.859221 0.763467
head -7.33509 0.277299 0.257005
rclavicle -5.479e-015 -5.56597e-015
rhumerus -37.0602 -28.8862 -75.0048
rradius 17.899
rwrist 27.7579
rhand -13.5901 10.5224
rfingers 7.12502
rthumb 12.5243 -19.0822
lclavicle -5.479e-015 -5.56597e-015
lhumerus -42.1005 30.858 69.8716
lradius 19.7395
lwrist -40.3988
lhand -3.36144 20.6583
lfingers 7.12502
lthumb 22.367 49.3835
rfemur -22.2712 7.35943 12.9635
rtibia 25.2739
rfoot -5.2244 -14.4274
rtoes -21.4487
lfemur -17.332 -9.09604 -20.3898
ltibia 25.342
lfoot -22.0763 12.7057
ltoes 6.74726
932
root -26.9159 16.3677 0.504581 12.7682 -178.168 1.80443
lowerback -14.2442 1.09385 -2.73747
upperback -6.16737 0.926074 1.66901
thorax 1.38691 0.171028 3.42226
lowerneck 13.7969 0.733554 -0.483303
upperneck -16.3955 0.824994 0.813921
head -7.31211 0.256709 0.272285
rclavicle -8.1129e-015 6.95746e-015
rhumerus -37.2391 -29.077 -74.8277
rradius 17.9163
rwrist 27.3792
rhand -12.7921 10.3681
rfingers 7.12502
rthumb 13.2936 -19.1879
lclavicle -8.1129e-015 6.95746e-015
lhumerus -43.3827 32.6 68.087
lradius 19.3184
lwrist -43.1546
lhand -3.63777 21.0691
lfingers 7.12502
lthumb 22.1018 49.8259
rfemur -22.0251 7.40919 12.8447
rtibia 25.0675
rfoot -5.26895 -14.4773
rtoes -21.4231
lfemur -17.2322 -8.88474 -20.5502
ltibia 25.3768
lfoot -22.1731 12.5636
ltoes 6.67088
933
root -26.9145 16.3672 0.497094 12.6728 -178.177 1.82733
lowerback -14.124 1.12882 -2.69356
upperback -6.20392 0.964081 1.63672
thorax 1.28326 0.190838 3.36675
lowerneck 13.7948 0.681897 -0.561093
upperneck -16.3309 0.768443 0.96537
head -7.29121 0.221939 0.340079
rclavicle 5.60324e-015 -3.77691e-015
rhumerus -37.4765 -29.1727 -74.7008
rradius 17.8363
rwrist 27.8391
rhand -13.6112 10.3719
rfingers 7.12502
rthumb 12.504 -19.234
lclavicle 5.60324e-015 -3.77691e-015
lhumerus -44.6014 34.0465 66.4744
lradius 18.7429
lwrist -45.3851
lhand -3.12748 20.9569
lfingers 7.12502
lthumb 22.5916 49.6549
rfemur -21.7736 7.62824 12.8293
rtibia 24.829
rfoot -5.34177 -14.5418
rtoes -20.9476
lfemur -17.1239 -8.74276 -20.5493
ltibia 25.4102
lfoot -22.2133 12.4247
ltoes 6.75291
934
root -26.9119 16.367 0.490553 12.5769 -178.192 1.90399
lowerback -14.2059 1.15123 -2.63191
upperback -6.09052 1.0025 1.66146
thorax 1.4448 0.211506 3.36571
lowerneck 13.746 0.671595 -0.734613
upperneck -16.3864 0.743203 1.13218
head -7.30194 0.20303 0.426068
rclavicle -7.31776e-015 -3.8763e-015
rhumerus -37.5079 -29.8051 -74.2985
rradius 17.7854
rwrist 28.4127
rhand -13.4616 10.5783
rfingers 7.12502
rthumb 12.6482 -19.0187
lclavicle -7.31776e-015 -3.8763e-015
lhumerus -45.6162 35.4955 64.9722
lradius 18.0084
lwrist -47.2452
lhand -1.6282 20.3099
lfingers 7.12502
lthumb 24.03 48.8255
rfemur -21.5044 8.23501 12.8034
rtibia 24.5535
rfoot -5.34871 -14.9092
rtoes -20.13
lfemur -17.0144 -8.79415 -20.4739
ltibia 25.4686
lfoot -22.2951 12.4853
ltoes 6.53511
935
root -26.9047 16.3632 0.48114 12.5085 -178.241 2.03641
lowerback -14.3559 1.16588 -2.58325
upperback -5.97274 1.02947 1.71461
thorax 1.64714 0.224988 3.40169
lowerneck 13.7035 0.690315 -0.808368
upperneck -16.4592 0.759942 1.19724
head -7.31899 0.207112 0.458221
rclavicle -1.32565e-014 -5.96354e-016
rhumerus -37.4743 -30.2713 -74.0414
rradius 17.744
rwrist 28.8498
rhand -12.9378 10.762
rfingers 7.12502
rthumb 13.1531 -18.8032
lclavicle -1.32565e-014 -5.96354e-016
lhumerus -46.607 36.7401 63.6197
lradius 17.3112
lwrist -48.4426
lhand -1.47559 20.3297
lfingers 7.12502
lthumb 24.1763 48.826
rfemur -21.2514 8.56555 12.9553
rtibia 24.2712
rfoot -5.10782 -15.1572
rtoes -20.5808
lfemur -16.9079 -8.92641 -20.3253
ltibia 25.5376
lfoot -22.3031 12.7143
ltoes 6.3161
936
root -26.8961 16.3597 0.469014 12.4067 -178.286 2.20434
lowerback -14.2522 1.24535 -2.43515
upperback -6.02898 1.1075 1.70272
thorax 1.53121 0.261711 3.31446
lowerneck 13.8975 0.644089 -0.739534
upperneck -16.5683 0.710663 1.18919
head -7.38792 0.179351 0.449281
rclavicle 2.62147e-015 -8.94531e-015
rhumerus -37.8709 -30.716 -73.6999
rradius 17.6901
rwrist 29.2458
rhand -13.0366 11.0369
rfingers 7.12502
rthumb 13.0579 -18.5344
lclavicle 2.62147e-015 -8.94531e-015
lhumerus -47.934 37.7451 61.9523
lradius 16.6681
lwrist -50.2628
lhand -2.10657 20.7554
lfingers 7.12502
lthumb 23.5712 49.3309
rfemur -20.9784 8.59343 13.2219
rtibia 24.0249
rfoot -4.88814 -15.1666
rtoes -21.6011
lfemur -16.7459 -9.25444 -20.1171
ltibia 25.5858
lfoot -22.1932 13.108
ltoes 6.30575
937
root -26.8901 16.3581 0.456931 12.3427 -178.284 2.25118
lowerback -14.4142 1.22959 -2.50005
upperback -5.9234 1.10701 1.75974
thorax 1.72565 0.262904 3.41531
lowerneck 14.038 0.613764 -0.613886
upperneck -16.8493 0.644568 0.965182
head -7.50283 0.155376 0.363067
rclavicle 1.50579e-014 -9.0447e-015
rhumerus -37.8875 -31.287 -73.2739
rradius 17.4291
rwrist 29.9172
rhand -13.1774 11.2698
rfingers 7.12502
rthumb 12.9221 -18.3101
lclavicle 1.50579e-014 -9.0447e-015
lhumerus -49.6074 39.6322 59.556
lradius 15.9865
lwrist -53.6662
lhand -2.24067 20.9872
lfingers 7.12502
lthumb 23.4425 49.5791
rfemur -20.7518 8.78901 13.2708
rtibia 23.792
rfoot -4.89181 -15.2912
rtoes -21.7175
lfemur -16.6429 -9.77393 -20.0191
ltibia 25.6415
lfoot -22.2239 13.5989
ltoes 6.59351
938
root -26.8875 16.3577 0.447704 12.383 -178.26 2.19676
lowerback -14.3955 1.2914 -2.48726
upperback -6.0391 1.17386 1.65285
thorax 1.59156 0.291796 3.30436
lowerneck 14.1752 0.512509 -0.465893
upperneck -16.8692 0.527243 0.886473
head -7.53187 0.0986913 0.324904
rclavicle 3.08737e-015 3.37934e-015
rhumerus -38.1985 -31.7891 -72.8103
rradius 17.1814
rwrist 30.7317
rhand -12.8766 11.1377
rfingers 7.12502
rthumb 13.2122 -18.4237
lclavicle 3.08737e-015 3.37934e-015
lhumerus -51.9939 41.5425 56.1991
lradius 15.3658
lwrist -57.2632
lhand -2.07971 21.0757
lfingers 7.12502
lthumb 23.5969 49.6478
rfemur -20.6318 8.96679 13.177
rtibia 23.5418
rfoot -4.84045 -15.4253
rtoes -21.3556
lfemur -16.6881 -10.0121 -20.0558
ltibia 25.7237
lfoot -22.2125 13.8755
ltoes 6.46824
939
root -26.8841 16.3591 0.439826 12.3314 -178.231 2.23192
lowerback -14.5177 1.25628 -2.52653
upperback -5.94123 1.1433 1.72452
thorax 1.75926 0.278276 3.40077
lowerneck 14.0384 0.511478 -0.607696
upperneck -16.8696 0.4922 0.900201
head -7.50806 0.0880858 0.356824
rclavicle 8.01351e-015 9.44227e-015
rhumerus -38.1437 -31.9062 -72.6472
rradius 17.234
rwrist 31.3334
rhand -12.565 10.8988
rfingers 7.12502
rthumb 13.5125 -18.6428
lclavicle 8.01351e-015 9.44227e-015
lhumerus -54.9859 44.1435 52.0711
lradius 14.867
lwrist -61.2477
lhand -1.54341 21.1124
lfingers 7.12502
lthumb 24.1113 49.6173
rfemur -20.4214 9.25853 13.2042
rtibia 23.3153
rfoot -4.61353 -15.7103
rtoes -20.922
lfemur -16.6436 -9.9391 -20.0295
ltibia 25.7929
lfoot -22.0619 13.8348
ltoes 6.06061
940
root -26.8777 16.3613 0.432137 12.3405 -178.276 2.34331
lowerback -14.5717 1.31479 -2.41762
upperback -5.94685 1.20361 1.71455
thorax 1.78109 0.304816 3.33882
lowerneck 13.9716 0.478069 -0.674173
upperneck -16.825 0.446125 0.97508
head -7.48163 0.063554 0.397081
rclavicle 1.19395e-014 -4.27387e-015
rhumerus -38.3832 -31.8471 -72.7097
rradius 17.665
rwrist 31.3382
rhand -12.8657 10.7262
rfingers 7.12502
rthumb 13.2227 -18.8345
lclavicle 1.19395e-014 -4.27387e-015
lhumerus -57.9043 46.017 48.003
lradius 14.3997
lwrist -64.3891
lhand -0.919967 20.96
lfingers 7.12502
lthumb 24.7089 49.3844
rfemur -20.3134 9.49104 13.3388
rtibia 23.1302
rfoot -4.48575 -15.9206
rtoes -20.7931
lfemur -16.6598 -9.61212 -19.9039
ltibia 25.8538
lfoot -22.1452 13.5185
ltoes 6.18359
941
root -26.8753 16.3586 0.42736 12.42 -178.409 2.24689
lowerback -14.6723 1.3116 -2.61705
upperback -5.97286 1.21608 1.77761
thorax 1.79813 0.31024 3.52218
lowerneck 14.0489 0.496569 -0.804512
upperneck -16.9277 0.429854 0.92394
head -7.52903 0.0675427 0.403896
rclavicle 1.12438e-014 2.28602e-014
rhumerus -38.1007 -31.8019 -72.5873
rradius 16.9358
rwrist 31.3494
rhand -13.7242 10.9232
rfingers 7.12502
rthumb 12.395 -18.6894
lclavicle 1.12438e-014 2.28602e-014
lhumerus -61.8056 48.1474 42.8875
lradius 13.8797
lwrist -67.1012
lhand -0.650711 20.4872
lfingers 7.12502
lthumb 24.967 48.8761
rfemur -20.0982 9.33639 13.2729
rtibia 22.5779
rfoot -4.21943 -15.6913
rtoes -21.5983
lfemur -16.8767 -9.43298 -20.0323
ltibia 26.2508
lfoot -22.4515 13.5576
ltoes 6.15305
942
root -26.873 16.3547 0.423648 12.5158 -178.59 2.13665
lowerback -14.5607 1.47378 -2.4169
upperback -6.17086 1.38446 1.49637
thorax 1.53143 0.384158 3.13418
lowerneck 14.3399 0.424176 -0.729982
upperneck -17.0615 0.385438 1.11455
head -7.6242 0.0231844 0.459165
rclavicle 9.95166e-015 2.53947e-014
rhumerus -38.4109 -32.4399 -72.3279
rradius 16.4125
rwrist 31.6639
rhand -13.9342 11.1633
rfingers 7.12502
rthumb 12.1926 -18.4614
lclavicle 9.95166e-015 2.53947e-014
lhumerus -66.745 49.862 36.2229
lradius 13.3775
lwrist -71.9506
lhand -0.929598 20.1251
lfingers 7.12502
lthumb 24.6997 48.5508
rfemur -19.8962 8.99316 13.2081
rtibia 21.9648
rfoot -3.98297 -15.2385
rtoes -22.2644
lfemur -17.1217 -9.18985 -20.1946
ltibia 26.6868
lfoot -22.6287 13.6824
ltoes 5.43424
943
root -26.8353 16.3461 0.399926 11.0825 -178.21 4.58524
lowerback -13.3042 1.56664 -0.398917
upperback -5.84372 1.28611 2.33418
thorax 1.25213 0.341751 2.83075
lowerneck 14.4949 0.462841 -0.725836
upperneck -17.2599 0.418618 1.03736
head -7.71721 0.0429379 0.43041
rclavicle -3.13459e-014 -2.97183e-014
rhumerus -38.3928 -32.5622 -72.1631
rradius 16.2878
rwrist 32.0688
rhand -13.6644 11.1942
rfingers 7.12502
rthumb 12.4527 -18.4148
lclavicle -3.13459e-014 -2.97183e-014
lhumerus -73.179 51.8655 28.0857
lradius 13.2263
lwrist -77.1652
lhand 0.260942 19.6999
lfingers 7.12502
lthumb 25.8403 47.9645
rfemur -17.9989 10.3591 16.2895
rtibia 21.3782
rfoot -3.45585 -16.2381
rtoes -21.9562
lfemur -15.7791 -8.6873 -17.524
ltibia 27.1115
lfoot -23.1071 13.4246
ltoes 4.98871
944
root -26.8212 16.343 0.388253 10.5829 -178.134 5.26871
lowerback -12.7254 1.67892 0.318575
upperback -5.83768 1.36905 2.41642
thorax 0.962714 0.379302 2.50968
lowerneck 14.6914 0.376634 -0.5658
upperneck -17.3762 0.338849 1.04719
head -7.78943 -0.00729467 0.416277
rclavicle -8.82107e-016 -5.7896e-015
rhumerus -38.8206 -32.92 -71.9116
rradius 16.5171
rwrist 32.614
rhand -12.9505 10.9054
rfingers 7.12502
rthumb 13.1409 -18.6605
lclavicle -8.82107e-016 -5.7896e-015
lhumerus -77.7361 52.5802 22.185
lradius 13.0469
lwrist -80.242
lhand 1.33104 20.0412
lfingers 7.12502
lthumb 26.8647 48.1525
rfemur -17.1635 11.1761 17.1494
rtibia 20.8748
rfoot -3.21409 -16.8599
rtoes -21.6561
lfemur -15.3456 -8.60601 -16.7901
ltibia 27.4271
lfoot -23.3823 13.4704
ltoes 5.32581
